TITLE ""
FILE "2Q_e_021-029.mp3" MP3
  TRACK 01 AUDIO
    TITLE "2Q_e_021-029_01"
    INDEX 01 00:00:00
  TRACK 02 AUDIO
    TITLE "2Q_e_021-029_02"
    INDEX 01 00:00:24
  TRACK 03 AUDIO
    TITLE "2Q_e_021-029_03"
    INDEX 01 00:02:35
  TRACK 04 AUDIO
    TITLE "2Q_e_021-029_04"
    INDEX 01 00:03:07
  TRACK 05 AUDIO
    TITLE "2Q_e_021-029_05"
    INDEX 01 00:05:31
  TRACK 06 AUDIO
    TITLE "2Q_e_021-029_06"
    INDEX 01 00:06:01
  TRACK 07 AUDIO
    TITLE "2Q_e_021-029_07"
    INDEX 01 00:11:47
  TRACK 08 AUDIO
    TITLE "2Q_e_021-029_08"
    INDEX 01 00:12:21
  TRACK 09 AUDIO
    TITLE "2Q_e_021-029_09"
    INDEX 01 00:13:42
  TRACK 10 AUDIO
    TITLE "2Q_e_021-029_10"
    INDEX 01 00:14:14
  TRACK 11 AUDIO
    TITLE "2Q_e_021-029_11"
    INDEX 01 00:16:07
  TRACK 12 AUDIO
    TITLE "2Q_e_021-029_12"
    INDEX 01 00:16:52
  TRACK 13 AUDIO
    TITLE "2Q_e_021-029_13"
    INDEX 01 00:21:71
  TRACK 14 AUDIO
    TITLE "2Q_e_021-029_14"
    INDEX 01 00:22:43
  TRACK 15 AUDIO
    TITLE "2Q_e_021-029_15"
    INDEX 01 00:24:03
  TRACK 16 AUDIO
    TITLE "2Q_e_021-029_16"
    INDEX 01 00:24:50
  TRACK 17 AUDIO
    TITLE "2Q_e_021-029_17"
    INDEX 01 00:27:09
  TRACK 18 AUDIO
    TITLE "2Q_e_021-029_18"
    INDEX 01 00:27:52
  TRACK 19 AUDIO
    TITLE "2Q_e_021-029_19"
    INDEX 01 00:32:53
  TRACK 20 AUDIO
    TITLE "2Q_e_021-029_20"
    INDEX 01 00:33:23
  TRACK 21 AUDIO
    TITLE "2Q_e_021-029_21"
    INDEX 01 00:35:09
  TRACK 22 AUDIO
    TITLE "2Q_e_021-029_22"
    INDEX 01 00:35:56
  TRACK 23 AUDIO
    TITLE "2Q_e_021-029_23"
    INDEX 01 00:38:52
  TRACK 24 AUDIO
    TITLE "2Q_e_021-029_24"
    INDEX 01 00:39:24
  TRACK 25 AUDIO
    TITLE "2Q_e_021-029_25"
    INDEX 01 00:43:63
  TRACK 26 AUDIO
    TITLE "2Q_e_021-029_26"
    INDEX 01 00:44:33
  TRACK 27 AUDIO
    TITLE "2Q_e_021-029_27"
    INDEX 01 00:46:32
  TRACK 28 AUDIO
    TITLE "2Q_e_021-029_28"
    INDEX 01 00:47:04
  TRACK 29 AUDIO
    TITLE "2Q_e_021-029_29"
    INDEX 01 00:49:60
  TRACK 30 AUDIO
    TITLE "2Q_e_021-029_30"
    INDEX 01 00:50:30
  TRACK 31 AUDIO
    TITLE "2Q_e_021-029_31"
    INDEX 01 00:56:09
  TRACK 32 AUDIO
    TITLE "2Q_e_021-029_32"
    INDEX 01 00:56:54
  TRACK 33 AUDIO
    TITLE "2Q_e_021-029_33"
    INDEX 01 00:58:12
  TRACK 34 AUDIO
    TITLE "2Q_e_021-029_34"
    INDEX 01 00:58:61
  TRACK 35 AUDIO
    TITLE "2Q_e_021-029_35"
    INDEX 01 01:00:73
  TRACK 36 AUDIO
    TITLE "2Q_e_021-029_36"
    INDEX 01 01:01:43
  TRACK 37 AUDIO
    TITLE "2Q_e_021-029_37"
    INDEX 01 01:05:55
  TRACK 38 AUDIO
    TITLE "2Q_e_021-029_38"
    INDEX 01 01:06:27
  TRACK 39 AUDIO
    TITLE "2Q_e_021-029_39"
    INDEX 01 01:07:64
  TRACK 40 AUDIO
    TITLE "2Q_e_021-029_40"
    INDEX 01 01:08:34
  TRACK 41 AUDIO
    TITLE "2Q_e_021-029_41"
    INDEX 01 01:10:48
  TRACK 42 AUDIO
    TITLE "2Q_e_021-029_42"
    INDEX 01 01:11:18
  TRACK 43 AUDIO
    TITLE "2Q_e_021-029_43"
    INDEX 01 01:16:10
  TRACK 44 AUDIO
    TITLE "2Q_e_021-029_44"
    INDEX 01 01:16:60
  TRACK 45 AUDIO
    TITLE "2Q_e_021-029_45"
    INDEX 01 01:19:43
  TRACK 46 AUDIO
    TITLE "2Q_e_021-029_46"
    INDEX 01 01:20:17
  TRACK 47 AUDIO
    TITLE "2Q_e_021-029_47"
    INDEX 01 01:22:43
  TRACK 48 AUDIO
    TITLE "2Q_e_021-029_48"
    INDEX 01 01:23:16
  TRACK 49 AUDIO
    TITLE "2Q_e_021-029_49"
    INDEX 01 01:27:64
  TRACK 50 AUDIO
    TITLE "2Q_e_021-029_50"
    INDEX 01 01:28:34
  TRACK 51 AUDIO
    TITLE "2Q_e_021-029_51"
    INDEX 01 01:29:69
  TRACK 52 AUDIO
    TITLE "2Q_e_021-029_52"
    INDEX 01 01:30:41
  TRACK 53 AUDIO
    TITLE "2Q_e_021-029_53"
    INDEX 01 01:32:58
  TRACK 54 AUDIO
    TITLE "2Q_e_021-029_54"
    INDEX 01 01:33:28
  TRACK 55 AUDIO
    TITLE "2Q_e_021-029_55"
    INDEX 01 01:37:18
  TRACK 56 AUDIO
    TITLE "2Q_e_021-029_56"
    INDEX 01 01:37:69
  TRACK 57 AUDIO
    TITLE "2Q_e_021-029_57"
    INDEX 01 01:39:64
  TRACK 58 AUDIO
    TITLE "2Q_e_021-029_58"
    INDEX 01 01:40:34
  TRACK 59 AUDIO
    TITLE "2Q_e_021-029_59"
    INDEX 01 01:42:52
  TRACK 60 AUDIO
    TITLE "2Q_e_021-029_60"
    INDEX 01 01:43:24
  TRACK 61 AUDIO
    TITLE "2Q_e_021-029_61"
    INDEX 01 01:47:06
